<svg xmlns="http://www.w3.org/2000/svg" xmlns:xlink="http://www.w3.org/1999/xlink" width="500" zoomAndPan="magnify" viewBox="0 0 375 374.999991" height="500" preserveAspectRatio="xMidYMid meet" version="1.0"><defs><filter x="0%" y="0%" width="100%" height="100%" id="7f9ef99d24"><feColorMatrix values="0 0 0 0 1 0 0 0 0 1 0 0 0 0 1 0 0 0 1 0" color-interpolation-filters="sRGB"/></filter><g/><mask id="88b3b7e573"><g filter="url(#7f9ef99d24)"><rect x="-37.5" width="450" fill="#000000" y="-37.499999" height="449.999989" fill-opacity="0.46"/></g></mask><clipPath id="5c49b930f4"><rect x="0" width="158" y="0" height="266"/></clipPath></defs><path fill="#ffffff" d="M 374.253906 188.246094 L 353.179688 188.246094 C 352.769531 188.246094 352.433594 187.910156 352.433594 187.5 C 352.433594 187.089844 352.769531 186.753906 353.179688 186.753906 L 374.253906 186.753906 C 374.667969 186.753906 375 187.089844 375 187.5 C 375 187.910156 374.667969 188.246094 374.253906 188.246094 " fill-opacity="1" fill-rule="nonzero"/><path fill="#ffffff" d="M 350.019531 155.925781 C 349.667969 155.925781 349.359375 155.679688 349.285156 155.324219 C 349.207031 154.917969 349.46875 154.523438 349.871094 154.445312 L 370.519531 150.335938 C 370.933594 150.257812 371.316406 150.515625 371.398438 150.921875 C 371.480469 151.328125 371.21875 151.71875 370.8125 151.800781 L 350.164062 155.910156 C 350.113281 155.917969 350.066406 155.925781 350.019531 155.925781 " fill-opacity="1" fill-rule="nonzero"/><path fill="#ffffff" d="M 370.667969 224.679688 C 370.621094 224.679688 370.570312 224.675781 370.519531 224.664062 L 349.871094 220.554688 C 349.46875 220.476562 349.207031 220.082031 349.285156 219.675781 C 349.367188 219.269531 349.753906 219.003906 350.164062 219.089844 L 370.8125 223.199219 C 371.21875 223.277344 371.480469 223.671875 371.398438 224.078125 C 371.328125 224.433594 371.015625 224.679688 370.667969 224.679688 " fill-opacity="1" fill-rule="nonzero"/><path fill="#ffffff" d="M 340.609375 124.828125 C 340.3125 124.828125 340.035156 124.652344 339.917969 124.367188 C 339.757812 123.984375 339.941406 123.546875 340.324219 123.386719 L 359.75 115.34375 C 360.132812 115.1875 360.570312 115.367188 360.726562 115.746094 C 360.886719 116.128906 360.703125 116.566406 360.324219 116.722656 L 340.894531 124.769531 C 340.800781 124.804688 340.703125 124.828125 340.609375 124.828125 " fill-opacity="1" fill-rule="nonzero"/><path fill="#ffffff" d="M 360.035156 259.714844 C 359.941406 259.714844 359.84375 259.695312 359.75 259.65625 L 340.324219 251.613281 C 339.941406 251.453125 339.757812 251.015625 339.917969 250.636719 C 340.074219 250.253906 340.515625 250.074219 340.894531 250.230469 L 360.324219 258.277344 C 360.703125 258.433594 360.886719 258.871094 360.726562 259.253906 C 360.609375 259.539062 360.328125 259.714844 360.035156 259.714844 " fill-opacity="1" fill-rule="nonzero"/><path fill="#ffffff" d="M 353.179688 188.246094 L 340.441406 188.246094 C 340.03125 188.246094 339.695312 187.910156 339.695312 187.5 C 339.695312 187.089844 340.03125 186.753906 340.441406 186.753906 L 353.179688 186.753906 C 353.59375 186.753906 353.925781 187.089844 353.925781 187.5 C 353.925781 187.910156 353.59375 188.246094 353.179688 188.246094 " fill-opacity="1" fill-rule="nonzero"/><path fill="#ffffff" d="M 339.710938 173.253906 C 339.332031 173.253906 339.007812 172.964844 338.96875 172.582031 C 338.925781 172.171875 339.226562 171.804688 339.636719 171.761719 L 352.316406 170.515625 C 352.734375 170.46875 353.089844 170.777344 353.132812 171.183594 C 353.171875 171.597656 352.871094 171.960938 352.460938 172.003906 L 339.78125 173.25 C 339.757812 173.253906 339.734375 173.253906 339.710938 173.253906 " fill-opacity="1" fill-rule="nonzero"/><path fill="#ffffff" d="M 352.386719 204.484375 C 352.363281 204.484375 352.339844 204.484375 352.316406 204.484375 L 339.636719 203.238281 C 339.226562 203.195312 338.925781 202.832031 338.96875 202.417969 C 339.007812 202.007812 339.367188 201.710938 339.78125 201.75 L 352.460938 202.996094 C 352.871094 203.039062 353.171875 203.402344 353.132812 203.816406 C 353.09375 204.199219 352.769531 204.484375 352.386719 204.484375 " fill-opacity="1" fill-rule="nonzero"/><path fill="#ffffff" d="M 337.53125 158.40625 C 337.179688 158.40625 336.867188 158.160156 336.796875 157.804688 C 336.714844 157.398438 336.980469 157.003906 337.382812 156.925781 L 349.871094 154.445312 C 350.277344 154.363281 350.671875 154.625 350.75 155.03125 C 350.832031 155.4375 350.570312 155.828125 350.164062 155.910156 L 337.675781 158.390625 C 337.625 158.398438 337.578125 158.40625 337.53125 158.40625 " fill-opacity="1" fill-rule="nonzero"/><path fill="#ffffff" d="M 350.023438 220.570312 C 349.972656 220.570312 349.921875 220.566406 349.871094 220.554688 L 337.382812 218.074219 C 336.980469 217.996094 336.714844 217.601562 336.796875 217.199219 C 336.875 216.792969 337.269531 216.527344 337.675781 216.609375 L 350.164062 219.089844 C 350.570312 219.167969 350.832031 219.5625 350.75 219.96875 C 350.679688 220.324219 350.367188 220.570312 350.023438 220.570312 " fill-opacity="1" fill-rule="nonzero"/><path fill="#ffffff" d="M 333.890625 143.847656 C 333.570312 143.847656 333.273438 143.636719 333.175781 143.316406 C 333.054688 142.917969 333.277344 142.503906 333.675781 142.382812 L 345.867188 138.679688 C 346.261719 138.558594 346.675781 138.78125 346.796875 139.175781 C 346.917969 139.570312 346.695312 139.984375 346.300781 140.109375 L 334.109375 143.8125 C 334.035156 143.835938 333.964844 143.847656 333.890625 143.847656 " fill-opacity="1" fill-rule="nonzero"/><path fill="#ffffff" d="M 346.082031 236.351562 C 346.011719 236.351562 345.941406 236.34375 345.867188 236.320312 L 333.675781 232.617188 C 333.277344 232.496094 333.054688 232.082031 333.175781 231.683594 C 333.296875 231.289062 333.714844 231.066406 334.109375 231.1875 L 346.300781 234.890625 C 346.695312 235.015625 346.917969 235.429688 346.796875 235.824219 C 346.699219 236.144531 346.402344 236.351562 346.082031 236.351562 " fill-opacity="1" fill-rule="nonzero"/><path fill="#ffffff" d="M 325.269531 96.191406 C 325.027344 96.191406 324.792969 96.074219 324.648438 95.859375 C 324.417969 95.519531 324.511719 95.054688 324.855469 94.824219 L 342.363281 83.125 C 342.710938 82.898438 343.171875 82.992188 343.402344 83.332031 C 343.632812 83.675781 343.539062 84.140625 343.195312 84.367188 L 325.683594 96.066406 C 325.558594 96.152344 325.414062 96.191406 325.269531 96.191406 " fill-opacity="1" fill-rule="nonzero"/><path fill="#ffffff" d="M 342.777344 292 C 342.640625 292 342.492188 291.960938 342.363281 291.875 L 324.855469 280.175781 C 324.511719 279.945312 324.417969 279.480469 324.648438 279.140625 C 324.878906 278.800781 325.339844 278.703125 325.683594 278.933594 L 343.195312 290.632812 C 343.539062 290.859375 343.632812 291.324219 343.402344 291.667969 C 343.257812 291.882812 343.019531 292 342.777344 292 " fill-opacity="1" fill-rule="nonzero"/><path fill="#ffffff" d="M 340.609375 251.667969 C 340.511719 251.667969 340.414062 251.648438 340.324219 251.613281 L 328.546875 246.734375 C 328.167969 246.574219 327.988281 246.136719 328.144531 245.757812 C 328.304688 245.375 328.742188 245.195312 329.121094 245.351562 L 340.894531 250.230469 C 341.273438 250.390625 341.453125 250.828125 341.296875 251.207031 C 341.179688 251.496094 340.898438 251.667969 340.609375 251.667969 " fill-opacity="1" fill-rule="nonzero"/><path fill="#ffffff" d="M 328.835938 129.703125 C 328.542969 129.703125 328.265625 129.53125 328.144531 129.242188 C 327.988281 128.863281 328.167969 128.425781 328.546875 128.265625 L 340.324219 123.386719 C 340.703125 123.234375 341.140625 123.410156 341.296875 123.792969 C 341.453125 124.171875 341.273438 124.609375 340.894531 124.769531 L 329.121094 129.648438 C 329.027344 129.683594 328.929688 129.703125 328.835938 129.703125 " fill-opacity="1" fill-rule="nonzero"/><path fill="#ffffff" d="M 322.410156 116.136719 C 322.144531 116.136719 321.886719 115.992188 321.753906 115.742188 C 321.554688 115.378906 321.695312 114.925781 322.058594 114.734375 L 333.292969 108.726562 C 333.65625 108.53125 334.109375 108.667969 334.300781 109.03125 C 334.496094 109.394531 334.359375 109.847656 333.996094 110.042969 L 322.761719 116.050781 C 322.652344 116.109375 322.53125 116.136719 322.410156 116.136719 " fill-opacity="1" fill-rule="nonzero"/><path fill="#ffffff" d="M 333.644531 266.363281 C 333.527344 266.363281 333.402344 266.332031 333.292969 266.273438 L 322.058594 260.265625 C 321.695312 260.074219 321.554688 259.621094 321.753906 259.257812 C 321.945312 258.890625 322.398438 258.757812 322.761719 258.949219 L 333.996094 264.957031 C 334.359375 265.152344 334.496094 265.605469 334.300781 265.96875 C 334.171875 266.21875 333.910156 266.363281 333.644531 266.363281 " fill-opacity="1" fill-rule="nonzero"/><path fill="#ffffff" d="M 314.679688 103.273438 C 314.441406 103.273438 314.199219 103.15625 314.058594 102.941406 C 313.828125 102.601562 313.921875 102.136719 314.265625 101.90625 L 324.855469 94.824219 C 325.199219 94.597656 325.664062 94.6875 325.894531 95.03125 C 326.121094 95.371094 326.03125 95.835938 325.683594 96.066406 L 315.09375 103.148438 C 314.96875 103.234375 314.820312 103.273438 314.679688 103.273438 " fill-opacity="1" fill-rule="nonzero"/><path fill="#ffffff" d="M 325.269531 280.300781 C 325.128906 280.300781 324.984375 280.261719 324.855469 280.175781 L 314.265625 273.09375 C 313.921875 272.863281 313.828125 272.398438 314.058594 272.058594 C 314.289062 271.714844 314.75 271.625 315.09375 271.851562 L 325.683594 278.933594 C 326.03125 279.164062 326.121094 279.628906 325.894531 279.96875 C 325.746094 280.183594 325.511719 280.300781 325.269531 280.300781 " fill-opacity="1" fill-rule="nonzero"/><path fill="#ffffff" d="M 304.652344 71.09375 C 304.460938 71.09375 304.269531 71.019531 304.125 70.875 C 303.832031 70.582031 303.832031 70.109375 304.125 69.820312 L 319.03125 54.914062 C 319.320312 54.621094 319.792969 54.621094 320.085938 54.914062 C 320.378906 55.207031 320.378906 55.679688 320.085938 55.96875 L 305.179688 70.875 C 305.039062 71.019531 304.84375 71.09375 304.652344 71.09375 " fill-opacity="1" fill-rule="nonzero"/><path fill="#ffffff" d="M 319.558594 320.304688 C 319.363281 320.304688 319.175781 320.230469 319.03125 320.085938 L 304.125 305.179688 C 303.832031 304.890625 303.832031 304.417969 304.125 304.125 C 304.417969 303.832031 304.890625 303.832031 305.179688 304.125 L 320.085938 319.03125 C 320.378906 319.320312 320.378906 319.792969 320.085938 320.085938 C 319.941406 320.230469 319.746094 320.304688 319.558594 320.304688 " fill-opacity="1" fill-rule="nonzero"/><path fill="#ffffff" d="M 315.574219 293.359375 C 315.410156 293.359375 315.242188 293.304688 315.101562 293.191406 L 305.246094 285.109375 C 304.929688 284.84375 304.882812 284.375 305.144531 284.058594 C 305.410156 283.734375 305.878906 283.6875 306.195312 283.953125 L 316.050781 292.035156 C 316.367188 292.292969 316.414062 292.765625 316.152344 293.085938 C 316.003906 293.265625 315.789062 293.359375 315.574219 293.359375 " fill-opacity="1" fill-rule="nonzero"/><path fill="#ffffff" d="M 305.722656 91.21875 C 305.507812 91.21875 305.292969 91.125 305.144531 90.941406 C 304.882812 90.625 304.929688 90.15625 305.246094 89.890625 L 315.101562 81.808594 C 315.421875 81.546875 315.890625 81.597656 316.152344 81.914062 C 316.414062 82.234375 316.367188 82.707031 316.050781 82.964844 L 306.195312 91.046875 C 306.054688 91.160156 305.890625 91.21875 305.722656 91.21875 " fill-opacity="1" fill-rule="nonzero"/><path fill="#ffffff" d="M 295.644531 80.101562 C 295.453125 80.101562 295.261719 80.03125 295.117188 79.882812 C 294.824219 79.589844 294.824219 79.117188 295.117188 78.828125 L 304.125 69.820312 C 304.417969 69.523438 304.890625 69.523438 305.179688 69.820312 C 305.476562 70.109375 305.476562 70.582031 305.179688 70.875 L 296.171875 79.882812 C 296.027344 80.03125 295.835938 80.101562 295.644531 80.101562 " fill-opacity="1" fill-rule="nonzero"/><path fill="#ffffff" d="M 304.652344 305.402344 C 304.460938 305.402344 304.269531 305.328125 304.125 305.179688 L 295.117188 296.171875 C 294.824219 295.882812 294.824219 295.40625 295.117188 295.117188 C 295.40625 294.824219 295.882812 294.824219 296.171875 295.117188 L 305.179688 304.125 C 305.476562 304.417969 305.476562 304.890625 305.179688 305.179688 C 305.039062 305.328125 304.84375 305.402344 304.652344 305.402344 " fill-opacity="1" fill-rule="nonzero"/><path fill="#ffffff" d="M 284.53125 70.023438 C 284.359375 70.023438 284.195312 69.96875 284.058594 69.855469 C 283.734375 69.59375 283.6875 69.121094 283.953125 68.804688 L 292.035156 58.949219 C 292.296875 58.632812 292.765625 58.585938 293.085938 58.847656 C 293.402344 59.109375 293.449219 59.578125 293.191406 59.898438 L 285.109375 69.753906 C 284.957031 69.929688 284.746094 70.023438 284.53125 70.023438 " fill-opacity="1" fill-rule="nonzero"/><path fill="#ffffff" d="M 292.613281 316.320312 C 292.398438 316.320312 292.183594 316.226562 292.035156 316.050781 L 283.953125 306.195312 C 283.6875 305.878906 283.734375 305.40625 284.058594 305.144531 C 284.375 304.882812 284.84375 304.929688 285.109375 305.246094 L 293.191406 315.101562 C 293.449219 315.421875 293.402344 315.890625 293.085938 316.152344 C 292.945312 316.265625 292.777344 316.320312 292.613281 316.320312 " fill-opacity="1" fill-rule="nonzero"/><path fill="#ffffff" d="M 279.554688 50.476562 C 279.410156 50.476562 279.269531 50.433594 279.140625 50.351562 C 278.796875 50.121094 278.707031 49.65625 278.933594 49.316406 L 290.632812 31.804688 C 290.859375 31.460938 291.324219 31.367188 291.667969 31.597656 C 292.007812 31.828125 292.101562 32.289062 291.875 32.636719 L 280.175781 50.144531 C 280.03125 50.359375 279.796875 50.476562 279.554688 50.476562 " fill-opacity="1" fill-rule="nonzero"/><path fill="#ffffff" d="M 291.253906 343.527344 C 291.011719 343.527344 290.773438 343.414062 290.632812 343.195312 L 278.933594 325.683594 C 278.707031 325.34375 278.796875 324.878906 279.140625 324.648438 C 279.484375 324.417969 279.945312 324.511719 280.175781 324.855469 L 291.875 342.363281 C 292.101562 342.710938 292.007812 343.171875 291.667969 343.402344 C 291.539062 343.488281 291.394531 343.527344 291.253906 343.527344 " fill-opacity="1" fill-rule="nonzero"/><path fill="#ffffff" d="M 279.554688 326.019531 C 279.3125 326.019531 279.078125 325.902344 278.933594 325.683594 L 271.851562 315.09375 C 271.621094 314.75 271.714844 314.289062 272.058594 314.058594 C 272.402344 313.828125 272.863281 313.921875 273.09375 314.265625 L 280.175781 324.855469 C 280.402344 325.199219 280.3125 325.664062 279.96875 325.894531 C 279.839844 325.976562 279.699219 326.019531 279.554688 326.019531 " fill-opacity="1" fill-rule="nonzero"/><path fill="#ffffff" d="M 272.472656 61.066406 C 272.328125 61.066406 272.183594 61.027344 272.058594 60.941406 C 271.714844 60.710938 271.621094 60.25 271.851562 59.90625 L 278.933594 49.316406 C 279.164062 48.96875 279.628906 48.878906 279.96875 49.105469 C 280.3125 49.335938 280.402344 49.800781 280.175781 50.144531 L 273.09375 60.734375 C 272.949219 60.953125 272.710938 61.066406 272.472656 61.066406 " fill-opacity="1" fill-rule="nonzero"/><path fill="#ffffff" d="M 259.605469 53.335938 C 259.492188 53.335938 259.371094 53.308594 259.257812 53.246094 C 258.890625 53.050781 258.753906 52.601562 258.949219 52.238281 L 264.957031 41 C 265.152344 40.640625 265.605469 40.503906 265.96875 40.695312 C 266.332031 40.890625 266.46875 41.34375 266.273438 41.707031 L 260.265625 52.941406 C 260.132812 53.195312 259.875 53.335938 259.605469 53.335938 " fill-opacity="1" fill-rule="nonzero"/><path fill="#ffffff" d="M 265.617188 334.394531 C 265.351562 334.394531 265.089844 334.25 264.957031 333.996094 L 258.949219 322.761719 C 258.753906 322.398438 258.890625 321.949219 259.257812 321.753906 C 259.621094 321.554688 260.074219 321.695312 260.265625 322.058594 L 266.273438 333.292969 C 266.46875 333.65625 266.332031 334.109375 265.96875 334.300781 C 265.855469 334.363281 265.734375 334.394531 265.617188 334.394531 " fill-opacity="1" fill-rule="nonzero"/><path fill="#ffffff" d="M 250.921875 35.140625 C 250.828125 35.140625 250.730469 35.121094 250.636719 35.082031 C 250.253906 34.925781 250.074219 34.488281 250.230469 34.105469 L 258.277344 14.675781 C 258.433594 14.296875 258.875 14.113281 259.253906 14.273438 C 259.632812 14.429688 259.8125 14.867188 259.65625 15.246094 L 251.613281 34.675781 C 251.492188 34.964844 251.214844 35.140625 250.921875 35.140625 " fill-opacity="1" fill-rule="nonzero"/><path fill="#ffffff" d="M 258.96875 360.785156 C 258.671875 360.785156 258.394531 360.609375 258.277344 360.324219 L 250.230469 340.894531 C 250.074219 340.511719 250.253906 340.074219 250.636719 339.917969 C 251.015625 339.757812 251.453125 339.941406 251.613281 340.324219 L 259.65625 359.75 C 259.8125 360.132812 259.632812 360.570312 259.253906 360.726562 C 259.160156 360.765625 259.0625 360.785156 258.96875 360.785156 " fill-opacity="1" fill-rule="nonzero"/><path fill="#ffffff" d="M 246.042969 46.914062 C 245.949219 46.914062 245.851562 46.890625 245.757812 46.855469 C 245.375 46.695312 245.195312 46.257812 245.351562 45.878906 L 250.230469 34.105469 C 250.390625 33.722656 250.828125 33.546875 251.207031 33.703125 C 251.589844 33.859375 251.769531 34.296875 251.613281 34.675781 L 246.734375 46.453125 C 246.617188 46.738281 246.335938 46.914062 246.042969 46.914062 " fill-opacity="1" fill-rule="nonzero"/><path fill="#ffffff" d="M 250.921875 341.355469 C 250.628906 341.355469 250.351562 341.179688 250.230469 340.894531 L 245.351562 329.121094 C 245.195312 328.742188 245.375 328.304688 245.757812 328.144531 C 246.136719 327.988281 246.574219 328.167969 246.734375 328.546875 L 251.613281 340.324219 C 251.769531 340.703125 251.589844 341.140625 251.207031 341.296875 C 251.113281 341.335938 251.015625 341.355469 250.921875 341.355469 " fill-opacity="1" fill-rule="nonzero"/><path fill="#ffffff" d="M 231.902344 41.855469 C 231.832031 41.855469 231.757812 41.84375 231.683594 41.824219 C 231.289062 41.703125 231.070312 41.285156 231.1875 40.890625 L 234.890625 28.699219 C 235.015625 28.304688 235.429688 28.078125 235.824219 28.203125 C 236.21875 28.320312 236.445312 28.738281 236.320312 29.132812 L 232.617188 41.324219 C 232.519531 41.648438 232.222656 41.855469 231.902344 41.855469 " fill-opacity="1" fill-rule="nonzero"/><path fill="#ffffff" d="M 235.605469 346.828125 C 235.289062 346.828125 234.992188 346.621094 234.890625 346.300781 L 231.1875 334.109375 C 231.070312 333.714844 231.289062 333.296875 231.683594 333.175781 C 232.082031 333.054688 232.496094 333.277344 232.617188 333.675781 L 236.320312 345.867188 C 236.445312 346.261719 236.21875 346.675781 235.824219 346.796875 C 235.753906 346.820312 235.679688 346.828125 235.605469 346.828125 " fill-opacity="1" fill-rule="nonzero"/><path fill="#ffffff" d="M 219.824219 25.726562 C 219.777344 25.726562 219.726562 25.722656 219.675781 25.714844 C 219.269531 25.632812 219.007812 25.238281 219.089844 24.835938 L 223.199219 4.1875 C 223.28125 3.78125 223.667969 3.519531 224.078125 3.601562 C 224.484375 3.679688 224.746094 4.074219 224.664062 4.480469 L 220.554688 25.128906 C 220.484375 25.480469 220.171875 25.726562 219.824219 25.726562 " fill-opacity="1" fill-rule="nonzero"/><path fill="#ffffff" d="M 223.929688 371.414062 C 223.582031 371.414062 223.269531 371.167969 223.199219 370.8125 L 219.089844 350.164062 C 219.007812 349.761719 219.269531 349.367188 219.675781 349.285156 C 220.085938 349.203125 220.472656 349.46875 220.554688 349.871094 L 224.664062 370.519531 C 224.746094 370.925781 224.484375 371.320312 224.078125 371.398438 C 224.027344 371.410156 223.976562 371.414062 223.929688 371.414062 " fill-opacity="1" fill-rule="nonzero"/><path fill="#ffffff" d="M 219.824219 350.765625 C 219.472656 350.765625 219.160156 350.519531 219.089844 350.164062 L 216.609375 337.675781 C 216.527344 337.269531 216.792969 336.878906 217.199219 336.796875 C 217.601562 336.710938 217.996094 336.980469 218.074219 337.382812 L 220.554688 349.871094 C 220.636719 350.277344 220.375 350.671875 219.96875 350.75 C 219.917969 350.761719 219.871094 350.765625 219.824219 350.765625 " fill-opacity="1" fill-rule="nonzero"/><path fill="#ffffff" d="M 217.34375 38.21875 C 217.296875 38.21875 217.246094 38.210938 217.199219 38.203125 C 216.792969 38.125 216.527344 37.730469 216.609375 37.324219 L 219.089844 24.835938 C 219.167969 24.429688 219.566406 24.167969 219.96875 24.25 C 220.375 24.328125 220.636719 24.722656 220.554688 25.128906 L 218.074219 37.617188 C 218.003906 37.972656 217.691406 38.21875 217.34375 38.21875 " fill-opacity="1" fill-rule="nonzero"/><path fill="#ffffff" d="M 203.738281 353.136719 C 203.359375 353.136719 203.035156 352.847656 202.996094 352.460938 L 201.75 339.78125 C 201.707031 339.375 202.007812 339.007812 202.417969 338.96875 C 202.839844 338.933594 203.195312 339.226562 203.238281 339.636719 L 204.484375 352.316406 C 204.523438 352.726562 204.222656 353.089844 203.816406 353.132812 C 203.789062 353.136719 203.761719 353.136719 203.738281 353.136719 " fill-opacity="1" fill-rule="nonzero"/><path fill="#ffffff" d="M 202.492188 36.035156 C 202.46875 36.035156 202.445312 36.035156 202.417969 36.03125 C 202.007812 35.992188 201.707031 35.625 201.75 35.214844 L 202.996094 22.539062 C 203.039062 22.128906 203.398438 21.824219 203.816406 21.867188 C 204.222656 21.910156 204.523438 22.273438 204.484375 22.683594 L 203.238281 35.363281 C 203.199219 35.75 202.871094 36.035156 202.492188 36.035156 " fill-opacity="1" fill-rule="nonzero"/><path fill="#ffffff" d="M 187.5 375 C 187.089844 375 186.753906 374.667969 186.753906 374.253906 L 186.753906 353.179688 C 186.753906 352.769531 187.089844 352.433594 187.5 352.433594 C 187.910156 352.433594 188.246094 352.769531 188.246094 353.179688 L 188.246094 374.253906 C 188.246094 374.667969 187.910156 375 187.5 375 " fill-opacity="1" fill-rule="nonzero"/><path fill="#ffffff" d="M 187.5 353.925781 C 187.089844 353.925781 186.753906 353.59375 186.753906 353.179688 L 186.753906 340.441406 C 186.753906 340.03125 187.089844 339.695312 187.5 339.695312 C 187.910156 339.695312 188.246094 340.03125 188.246094 340.441406 L 188.246094 353.179688 C 188.246094 353.59375 187.910156 353.925781 187.5 353.925781 " fill-opacity="1" fill-rule="nonzero"/><path fill="#ffffff" d="M 187.5 35.304688 C 187.089844 35.304688 186.753906 34.96875 186.753906 34.558594 L 186.753906 21.820312 C 186.753906 21.40625 187.089844 21.074219 187.5 21.074219 C 187.910156 21.074219 188.246094 21.40625 188.246094 21.820312 L 188.246094 34.558594 C 188.246094 34.96875 187.910156 35.304688 187.5 35.304688 " fill-opacity="1" fill-rule="nonzero"/><path fill="#ffffff" d="M 187.5 22.566406 C 187.089844 22.566406 186.753906 22.230469 186.753906 21.820312 L 186.753906 0.746094 C 186.753906 0.335938 187.089844 0 187.5 0 C 187.910156 0 188.246094 0.335938 188.246094 0.746094 L 188.246094 21.820312 C 188.246094 22.230469 187.910156 22.566406 187.5 22.566406 " fill-opacity="1" fill-rule="nonzero"/><path fill="#ffffff" d="M 171.261719 353.136719 C 171.234375 353.136719 171.210938 353.136719 171.183594 353.132812 C 170.777344 353.089844 170.476562 352.726562 170.515625 352.316406 L 171.761719 339.636719 C 171.804688 339.226562 172.167969 338.933594 172.582031 338.96875 C 172.992188 339.007812 173.292969 339.375 173.25 339.78125 L 172.003906 352.460938 C 171.964844 352.847656 171.640625 353.136719 171.261719 353.136719 " fill-opacity="1" fill-rule="nonzero"/><path fill="#ffffff" d="M 172.507812 36.035156 C 172.128906 36.035156 171.800781 35.75 171.761719 35.363281 L 170.515625 22.683594 C 170.476562 22.273438 170.777344 21.910156 171.183594 21.867188 C 171.605469 21.828125 171.960938 22.128906 172.003906 22.539062 L 173.25 35.214844 C 173.292969 35.625 172.992188 35.992188 172.582031 36.03125 C 172.558594 36.035156 172.53125 36.035156 172.507812 36.035156 " fill-opacity="1" fill-rule="nonzero"/><path fill="#ffffff" d="M 155.175781 350.765625 C 155.128906 350.765625 155.082031 350.761719 155.03125 350.75 C 154.625 350.671875 154.363281 350.277344 154.445312 349.871094 L 156.925781 337.382812 C 157.003906 336.980469 157.394531 336.710938 157.804688 336.796875 C 158.207031 336.878906 158.46875 337.269531 158.390625 337.675781 L 155.910156 350.164062 C 155.839844 350.519531 155.527344 350.765625 155.175781 350.765625 " fill-opacity="1" fill-rule="nonzero"/><path fill="#ffffff" d="M 157.65625 38.21875 C 157.308594 38.21875 156.996094 37.972656 156.925781 37.617188 L 154.445312 25.128906 C 154.363281 24.722656 154.625 24.328125 155.03125 24.25 C 155.4375 24.167969 155.828125 24.429688 155.910156 24.835938 L 158.390625 37.324219 C 158.46875 37.730469 158.207031 38.125 157.804688 38.203125 C 157.753906 38.210938 157.703125 38.21875 157.65625 38.21875 " fill-opacity="1" fill-rule="nonzero"/><path fill="#ffffff" d="M 151.070312 371.414062 C 151.023438 371.414062 150.972656 371.410156 150.921875 371.398438 C 150.515625 371.320312 150.253906 370.925781 150.335938 370.519531 L 154.445312 349.871094 C 154.523438 349.46875 154.917969 349.203125 155.324219 349.285156 C 155.730469 349.367188 155.988281 349.761719 155.910156 350.164062 L 151.800781 370.8125 C 151.730469 371.167969 151.417969 371.414062 151.070312 371.414062 " fill-opacity="1" fill-rule="nonzero"/><path fill="#ffffff" d="M 155.175781 25.726562 C 154.828125 25.726562 154.515625 25.480469 154.445312 25.128906 L 150.335938 4.480469 C 150.253906 4.074219 150.515625 3.679688 150.921875 3.601562 C 151.328125 3.523438 151.722656 3.78125 151.800781 4.1875 L 155.910156 24.835938 C 155.988281 25.238281 155.730469 25.632812 155.324219 25.714844 C 155.273438 25.722656 155.222656 25.726562 155.175781 25.726562 " fill-opacity="1" fill-rule="nonzero"/><path fill="#ffffff" d="M 143.097656 41.855469 C 142.777344 41.855469 142.480469 41.648438 142.382812 41.324219 L 138.679688 29.132812 C 138.558594 28.738281 138.78125 28.320312 139.175781 28.203125 C 139.570312 28.078125 139.984375 28.304688 140.109375 28.699219 L 143.8125 40.890625 C 143.929688 41.285156 143.710938 41.703125 143.316406 41.824219 C 143.242188 41.84375 143.167969 41.855469 143.097656 41.855469 " fill-opacity="1" fill-rule="nonzero"/><path fill="#ffffff" d="M 139.394531 346.828125 C 139.320312 346.828125 139.246094 346.820312 139.175781 346.796875 C 138.78125 346.675781 138.558594 346.261719 138.679688 345.867188 L 142.382812 333.675781 C 142.503906 333.277344 142.921875 333.058594 143.316406 333.175781 C 143.710938 333.296875 143.929688 333.714844 143.8125 334.109375 L 140.109375 346.300781 C 140.007812 346.621094 139.710938 346.828125 139.394531 346.828125 " fill-opacity="1" fill-rule="nonzero"/><path fill="#ffffff" d="M 128.957031 46.914062 C 128.664062 46.914062 128.386719 46.738281 128.265625 46.453125 L 123.386719 34.675781 C 123.230469 34.296875 123.410156 33.859375 123.792969 33.703125 C 124.171875 33.542969 124.609375 33.722656 124.769531 34.105469 L 129.648438 45.878906 C 129.804688 46.257812 129.625 46.695312 129.242188 46.855469 C 129.148438 46.890625 129.050781 46.914062 128.957031 46.914062 " fill-opacity="1" fill-rule="nonzero"/><path fill="#ffffff" d="M 124.078125 341.355469 C 123.984375 341.355469 123.886719 341.335938 123.792969 341.296875 C 123.410156 341.140625 123.230469 340.703125 123.386719 340.324219 L 128.265625 328.546875 C 128.425781 328.167969 128.863281 327.988281 129.242188 328.144531 C 129.625 328.304688 129.804688 328.738281 129.648438 329.121094 L 124.769531 340.894531 C 124.648438 341.179688 124.371094 341.355469 124.078125 341.355469 " fill-opacity="1" fill-rule="nonzero"/><path fill="#ffffff" d="M 116.03125 360.785156 C 115.9375 360.785156 115.84375 360.765625 115.746094 360.726562 C 115.367188 360.570312 115.1875 360.132812 115.34375 359.75 L 123.386719 340.324219 C 123.546875 339.941406 123.984375 339.757812 124.367188 339.917969 C 124.746094 340.074219 124.925781 340.511719 124.769531 340.894531 L 116.722656 360.324219 C 116.605469 360.609375 116.328125 360.785156 116.03125 360.785156 " fill-opacity="1" fill-rule="nonzero"/><path fill="#ffffff" d="M 124.078125 35.140625 C 123.785156 35.140625 123.507812 34.964844 123.386719 34.675781 L 115.34375 15.246094 C 115.1875 14.867188 115.367188 14.429688 115.75 14.273438 C 116.128906 14.113281 116.566406 14.296875 116.722656 14.675781 L 124.769531 34.105469 C 124.925781 34.488281 124.746094 34.925781 124.363281 35.082031 C 124.269531 35.121094 124.171875 35.140625 124.078125 35.140625 " fill-opacity="1" fill-rule="nonzero"/><path fill="#ffffff" d="M 115.394531 53.335938 C 115.125 53.335938 114.867188 53.195312 114.734375 52.941406 L 108.726562 41.707031 C 108.53125 41.34375 108.667969 40.890625 109.03125 40.695312 C 109.394531 40.503906 109.847656 40.640625 110.042969 41 L 116.050781 52.238281 C 116.246094 52.601562 116.109375 53.050781 115.742188 53.246094 C 115.632812 53.308594 115.507812 53.335938 115.394531 53.335938 " fill-opacity="1" fill-rule="nonzero"/><path fill="#ffffff" d="M 109.382812 334.394531 C 109.265625 334.394531 109.144531 334.363281 109.03125 334.300781 C 108.667969 334.109375 108.53125 333.65625 108.726562 333.292969 L 114.734375 322.058594 C 114.925781 321.695312 115.378906 321.554688 115.742188 321.753906 C 116.109375 321.949219 116.246094 322.398438 116.050781 322.761719 L 110.042969 333.996094 C 109.910156 334.25 109.648438 334.394531 109.382812 334.394531 " fill-opacity="1" fill-rule="nonzero"/><path fill="#ffffff" d="M 102.527344 61.066406 C 102.289062 61.066406 102.050781 60.953125 101.90625 60.734375 L 94.824219 50.144531 C 94.597656 49.800781 94.6875 49.335938 95.03125 49.105469 C 95.371094 48.875 95.835938 48.96875 96.066406 49.316406 L 103.148438 59.90625 C 103.375 60.25 103.285156 60.710938 102.941406 60.941406 C 102.816406 61.027344 102.671875 61.066406 102.527344 61.066406 " fill-opacity="1" fill-rule="nonzero"/><path fill="#ffffff" d="M 95.445312 326.019531 C 95.300781 326.019531 95.160156 325.976562 95.03125 325.894531 C 94.6875 325.664062 94.597656 325.199219 94.824219 324.855469 L 101.90625 314.265625 C 102.136719 313.921875 102.601562 313.828125 102.941406 314.058594 C 103.285156 314.289062 103.375 314.75 103.148438 315.09375 L 96.066406 325.683594 C 95.925781 325.902344 95.6875 326.019531 95.445312 326.019531 " fill-opacity="1" fill-rule="nonzero"/><path fill="#ffffff" d="M 95.445312 50.476562 C 95.207031 50.476562 94.96875 50.359375 94.824219 50.144531 L 83.125 32.636719 C 82.898438 32.289062 82.988281 31.828125 83.332031 31.597656 C 83.675781 31.367188 84.136719 31.460938 84.367188 31.804688 L 96.066406 49.316406 C 96.292969 49.65625 96.203125 50.121094 95.859375 50.351562 C 95.734375 50.433594 95.589844 50.476562 95.445312 50.476562 " fill-opacity="1" fill-rule="nonzero"/><path fill="#ffffff" d="M 83.746094 343.527344 C 83.605469 343.527344 83.460938 343.488281 83.332031 343.402344 C 82.988281 343.171875 82.898438 342.710938 83.125 342.363281 L 94.824219 324.855469 C 95.054688 324.511719 95.519531 324.421875 95.859375 324.648438 C 96.203125 324.878906 96.292969 325.34375 96.066406 325.683594 L 84.367188 343.195312 C 84.226562 343.414062 83.988281 343.527344 83.746094 343.527344 " fill-opacity="1" fill-rule="nonzero"/><path fill="#ffffff" d="M 82.386719 316.320312 C 82.222656 316.320312 82.054688 316.265625 81.914062 316.152344 C 81.597656 315.890625 81.550781 315.421875 81.808594 315.101562 L 89.890625 305.246094 C 90.15625 304.929688 90.625 304.882812 90.941406 305.144531 C 91.265625 305.40625 91.308594 305.878906 91.046875 306.195312 L 82.964844 316.050781 C 82.820312 316.226562 82.601562 316.320312 82.386719 316.320312 " fill-opacity="1" fill-rule="nonzero"/><path fill="#ffffff" d="M 90.46875 70.023438 C 90.253906 70.023438 90.042969 69.929688 89.890625 69.753906 L 81.808594 59.898438 C 81.550781 59.578125 81.597656 59.109375 81.914062 58.847656 C 82.234375 58.585938 82.707031 58.632812 82.964844 58.949219 L 91.046875 68.804688 C 91.308594 69.121094 91.265625 69.59375 90.941406 69.855469 C 90.804688 69.96875 90.636719 70.023438 90.46875 70.023438 " fill-opacity="1" fill-rule="nonzero"/><path fill="#ffffff" d="M 70.34375 305.402344 C 70.15625 305.402344 69.960938 305.328125 69.820312 305.179688 C 69.527344 304.890625 69.527344 304.417969 69.820312 304.125 L 78.828125 295.117188 C 79.117188 294.824219 79.589844 294.824219 79.882812 295.117188 C 80.175781 295.40625 80.175781 295.882812 79.882812 296.171875 L 70.875 305.179688 C 70.726562 305.328125 70.539062 305.402344 70.34375 305.402344 " fill-opacity="1" fill-rule="nonzero"/><path fill="#ffffff" d="M 79.355469 80.101562 C 79.164062 80.101562 78.972656 80.03125 78.828125 79.882812 L 69.820312 70.875 C 69.527344 70.582031 69.527344 70.109375 69.820312 69.820312 C 70.109375 69.523438 70.582031 69.523438 70.875 69.820312 L 79.882812 78.828125 C 80.175781 79.117188 80.175781 79.589844 79.882812 79.882812 C 79.738281 80.03125 79.546875 80.101562 79.355469 80.101562 " fill-opacity="1" fill-rule="nonzero"/><path fill="#ffffff" d="M 55.441406 320.304688 C 55.253906 320.304688 55.058594 320.230469 54.914062 320.085938 C 54.621094 319.792969 54.621094 319.320312 54.914062 319.03125 L 69.820312 304.125 C 70.109375 303.832031 70.582031 303.832031 70.875 304.125 C 71.167969 304.417969 71.167969 304.890625 70.875 305.179688 L 55.96875 320.085938 C 55.824219 320.230469 55.636719 320.304688 55.441406 320.304688 " fill-opacity="1" fill-rule="nonzero"/><path fill="#ffffff" d="M 70.34375 71.09375 C 70.15625 71.09375 69.960938 71.019531 69.820312 70.875 L 54.914062 55.96875 C 54.621094 55.679688 54.621094 55.207031 54.914062 54.914062 C 55.207031 54.621094 55.679688 54.621094 55.96875 54.914062 L 70.875 69.820312 C 71.167969 70.109375 71.167969 70.582031 70.875 70.875 C 70.726562 71.019531 70.539062 71.09375 70.34375 71.09375 " fill-opacity="1" fill-rule="nonzero"/><path fill="#ffffff" d="M 69.277344 91.21875 C 69.109375 91.21875 68.945312 91.160156 68.804688 91.046875 L 58.949219 82.964844 C 58.632812 82.707031 58.585938 82.234375 58.847656 81.914062 C 59.105469 81.597656 59.578125 81.550781 59.898438 81.808594 L 69.753906 89.890625 C 70.070312 90.15625 70.117188 90.625 69.855469 90.941406 C 69.707031 91.125 69.492188 91.21875 69.277344 91.21875 " fill-opacity="1" fill-rule="nonzero"/><path fill="#ffffff" d="M 59.425781 293.359375 C 59.210938 293.359375 58.992188 293.265625 58.847656 293.085938 C 58.585938 292.765625 58.632812 292.292969 58.949219 292.035156 L 68.804688 283.953125 C 69.125 283.691406 69.59375 283.734375 69.855469 284.058594 C 70.117188 284.375 70.070312 284.84375 69.753906 285.109375 L 59.898438 293.191406 C 59.757812 293.304688 59.589844 293.359375 59.425781 293.359375 " fill-opacity="1" fill-rule="nonzero"/><path fill="#ffffff" d="M 60.320312 103.273438 C 60.179688 103.273438 60.03125 103.234375 59.90625 103.148438 L 49.316406 96.066406 C 48.96875 95.835938 48.875 95.371094 49.105469 95.03125 C 49.335938 94.6875 49.800781 94.597656 50.144531 94.824219 L 60.734375 101.90625 C 61.078125 102.136719 61.171875 102.601562 60.941406 102.941406 C 60.800781 103.15625 60.558594 103.273438 60.320312 103.273438 " fill-opacity="1" fill-rule="nonzero"/><path fill="#ffffff" d="M 49.730469 280.300781 C 49.488281 280.300781 49.25 280.183594 49.105469 279.96875 C 48.875 279.628906 48.96875 279.164062 49.316406 278.933594 L 59.90625 271.851562 C 60.25 271.621094 60.710938 271.714844 60.941406 272.058594 C 61.171875 272.398438 61.078125 272.863281 60.734375 273.09375 L 50.144531 280.175781 C 50.019531 280.261719 49.871094 280.300781 49.730469 280.300781 " fill-opacity="1" fill-rule="nonzero"/><path fill="#ffffff" d="M 52.589844 116.136719 C 52.46875 116.136719 52.347656 116.109375 52.238281 116.050781 L 41 110.042969 C 40.640625 109.847656 40.503906 109.394531 40.695312 109.03125 C 40.890625 108.667969 41.34375 108.53125 41.707031 108.726562 L 52.941406 114.734375 C 53.304688 114.925781 53.445312 115.378906 53.246094 115.742188 C 53.113281 115.992188 52.855469 116.136719 52.589844 116.136719 " fill-opacity="1" fill-rule="nonzero"/><path fill="#ffffff" d="M 41.355469 266.363281 C 41.089844 266.363281 40.828125 266.21875 40.695312 265.96875 C 40.503906 265.605469 40.640625 265.152344 41 264.957031 L 52.238281 258.949219 C 52.601562 258.757812 53.054688 258.890625 53.246094 259.257812 C 53.445312 259.621094 53.304688 260.074219 52.941406 260.265625 L 41.707031 266.273438 C 41.59375 266.332031 41.472656 266.363281 41.355469 266.363281 " fill-opacity="1" fill-rule="nonzero"/><path fill="#ffffff" d="M 49.730469 96.191406 C 49.585938 96.191406 49.441406 96.152344 49.316406 96.066406 L 31.804688 84.367188 C 31.460938 84.140625 31.367188 83.675781 31.597656 83.332031 C 31.828125 82.988281 32.289062 82.898438 32.632812 83.125 L 50.144531 94.824219 C 50.488281 95.054688 50.578125 95.519531 50.351562 95.859375 C 50.203125 96.074219 49.96875 96.191406 49.730469 96.191406 " fill-opacity="1" fill-rule="nonzero"/><path fill="#ffffff" d="M 32.222656 292 C 31.980469 292 31.742188 291.882812 31.597656 291.667969 C 31.367188 291.324219 31.460938 290.859375 31.804688 290.632812 L 49.316406 278.933594 C 49.65625 278.707031 50.121094 278.796875 50.351562 279.140625 C 50.578125 279.480469 50.488281 279.945312 50.144531 280.175781 L 32.632812 291.875 C 32.507812 291.960938 32.359375 292 32.222656 292 " fill-opacity="1" fill-rule="nonzero"/><path fill="#ffffff" d="M 46.164062 129.703125 C 46.070312 129.703125 45.972656 129.683594 45.878906 129.648438 L 34.105469 124.769531 C 33.726562 124.609375 33.546875 124.171875 33.703125 123.792969 C 33.859375 123.410156 34.296875 123.230469 34.675781 123.386719 L 46.453125 128.265625 C 46.832031 128.425781 47.011719 128.863281 46.855469 129.242188 C 46.734375 129.53125 46.457031 129.703125 46.164062 129.703125 " fill-opacity="1" fill-rule="nonzero"/><path fill="#ffffff" d="M 34.390625 251.667969 C 34.101562 251.667969 33.824219 251.496094 33.703125 251.207031 C 33.546875 250.828125 33.726562 250.390625 34.105469 250.230469 L 45.878906 245.351562 C 46.257812 245.195312 46.695312 245.375 46.855469 245.757812 C 47.011719 246.136719 46.832031 246.574219 46.453125 246.734375 L 34.675781 251.613281 C 34.585938 251.648438 34.488281 251.667969 34.390625 251.667969 " fill-opacity="1" fill-rule="nonzero"/><path fill="#ffffff" d="M 28.917969 236.351562 C 28.597656 236.351562 28.300781 236.144531 28.203125 235.824219 C 28.082031 235.429688 28.304688 235.015625 28.699219 234.890625 L 40.890625 231.1875 C 41.285156 231.066406 41.703125 231.289062 41.824219 231.683594 C 41.945312 232.082031 41.71875 232.496094 41.324219 232.617188 L 29.132812 236.320312 C 29.058594 236.34375 28.988281 236.351562 28.917969 236.351562 " fill-opacity="1" fill-rule="nonzero"/><path fill="#ffffff" d="M 41.109375 143.847656 C 41.035156 143.847656 40.964844 143.835938 40.890625 143.8125 L 28.699219 140.109375 C 28.304688 139.984375 28.082031 139.570312 28.203125 139.175781 C 28.320312 138.78125 28.738281 138.558594 29.132812 138.679688 L 41.324219 142.382812 C 41.71875 142.503906 41.945312 142.917969 41.824219 143.316406 C 41.726562 143.636719 41.429688 143.847656 41.109375 143.847656 " fill-opacity="1" fill-rule="nonzero"/><path fill="#ffffff" d="M 37.46875 158.40625 C 37.421875 158.40625 37.375 158.398438 37.324219 158.390625 L 24.835938 155.910156 C 24.429688 155.832031 24.167969 155.4375 24.25 155.03125 C 24.328125 154.625 24.71875 154.363281 25.128906 154.445312 L 37.617188 156.925781 C 38.023438 157.003906 38.285156 157.398438 38.203125 157.804688 C 38.132812 158.160156 37.820312 158.40625 37.46875 158.40625 " fill-opacity="1" fill-rule="nonzero"/><path fill="#ffffff" d="M 24.976562 220.570312 C 24.632812 220.570312 24.320312 220.324219 24.25 219.96875 C 24.167969 219.5625 24.429688 219.167969 24.835938 219.089844 L 37.324219 216.609375 C 37.730469 216.527344 38.121094 216.792969 38.203125 217.199219 C 38.285156 217.601562 38.023438 217.996094 37.617188 218.074219 L 25.128906 220.554688 C 25.078125 220.566406 25.027344 220.570312 24.976562 220.570312 " fill-opacity="1" fill-rule="nonzero"/><path fill="#ffffff" d="M 35.289062 173.253906 C 35.265625 173.253906 35.242188 173.253906 35.214844 173.25 L 22.539062 172.003906 C 22.128906 171.960938 21.828125 171.597656 21.867188 171.183594 C 21.910156 170.777344 22.269531 170.480469 22.683594 170.515625 L 35.363281 171.761719 C 35.773438 171.804688 36.074219 172.171875 36.03125 172.582031 C 35.992188 172.964844 35.667969 173.253906 35.289062 173.253906 " fill-opacity="1" fill-rule="nonzero"/><path fill="#ffffff" d="M 22.613281 204.484375 C 22.230469 204.484375 21.90625 204.199219 21.867188 203.816406 C 21.828125 203.402344 22.128906 203.039062 22.539062 202.996094 L 35.214844 201.75 C 35.632812 201.710938 35.992188 202.007812 36.03125 202.417969 C 36.074219 202.832031 35.773438 203.195312 35.363281 203.238281 L 22.683594 204.484375 C 22.660156 204.484375 22.636719 204.484375 22.613281 204.484375 " fill-opacity="1" fill-rule="nonzero"/><path fill="#ffffff" d="M 34.558594 188.246094 L 21.820312 188.246094 C 21.40625 188.246094 21.074219 187.910156 21.074219 187.5 C 21.074219 187.089844 21.40625 186.753906 21.820312 186.753906 L 34.558594 186.753906 C 34.96875 186.753906 35.304688 187.089844 35.304688 187.5 C 35.304688 187.910156 34.96875 188.246094 34.558594 188.246094 " fill-opacity="1" fill-rule="nonzero"/><path fill="#ffffff" d="M 34.390625 124.828125 C 34.296875 124.828125 34.199219 124.804688 34.105469 124.769531 L 14.675781 116.722656 C 14.296875 116.566406 14.113281 116.128906 14.273438 115.75 C 14.429688 115.367188 14.863281 115.1875 15.25 115.34375 L 34.675781 123.386719 C 35.058594 123.546875 35.242188 123.984375 35.082031 124.363281 C 34.964844 124.652344 34.6875 124.828125 34.390625 124.828125 " fill-opacity="1" fill-rule="nonzero"/><path fill="#ffffff" d="M 14.964844 259.714844 C 14.667969 259.714844 14.390625 259.539062 14.273438 259.253906 C 14.113281 258.871094 14.296875 258.433594 14.675781 258.277344 L 34.105469 250.230469 C 34.488281 250.074219 34.925781 250.253906 35.082031 250.636719 C 35.242188 251.015625 35.058594 251.453125 34.675781 251.613281 L 15.246094 259.65625 C 15.152344 259.695312 15.058594 259.714844 14.964844 259.714844 " fill-opacity="1" fill-rule="nonzero"/><path fill="#ffffff" d="M 24.980469 155.925781 C 24.929688 155.925781 24.882812 155.917969 24.835938 155.910156 L 4.1875 151.800781 C 3.78125 151.71875 3.519531 151.328125 3.601562 150.921875 C 3.679688 150.515625 4.070312 150.253906 4.480469 150.335938 L 25.128906 154.445312 C 25.53125 154.523438 25.792969 154.917969 25.714844 155.324219 C 25.644531 155.679688 25.328125 155.925781 24.980469 155.925781 " fill-opacity="1" fill-rule="nonzero"/><path fill="#ffffff" d="M 4.332031 224.679688 C 3.984375 224.679688 3.671875 224.433594 3.601562 224.078125 C 3.519531 223.671875 3.78125 223.277344 4.1875 223.199219 L 24.835938 219.089844 C 25.242188 219.007812 25.632812 219.269531 25.714844 219.675781 C 25.792969 220.082031 25.53125 220.476562 25.128906 220.554688 L 4.480469 224.664062 C 4.429688 224.675781 4.378906 224.679688 4.332031 224.679688 " fill-opacity="1" fill-rule="nonzero"/><path fill="#ffffff" d="M 21.820312 188.246094 L 0.746094 188.246094 C 0.335938 188.246094 0 187.910156 0 187.5 C 0 187.089844 0.335938 186.753906 0.746094 186.753906 L 21.820312 186.753906 C 22.230469 186.753906 22.566406 187.089844 22.566406 187.5 C 22.566406 187.910156 22.230469 188.246094 21.820312 188.246094 " fill-opacity="1" fill-rule="nonzero"/><g fill="#ffffff" fill-opacity="1"><g transform="translate(87.598667, 288.209117)"><g><path d="M 35 0 L 17.5 0 L 17.5 -218.75 L 169.09375 -218.75 L 169.09375 -199.28125 C 164.570312 -200.738281 158.738281 -202.195312 151.59375 -203.65625 C 144.445312 -205.113281 136.5 -206.5 127.75 -207.8125 C 119 -209.125 109.847656 -210.253906 100.296875 -211.203125 C 90.742188 -212.148438 81.375 -212.914062 72.1875 -213.5 C 63 -214.082031 54.394531 -214.375 46.375 -214.375 C 42.4375 -214.375 39.519531 -213.390625 37.625 -211.421875 C 35.726562 -209.453125 34.78125 -205.476562 34.78125 -199.5 L 34.78125 -130.375 C 34.78125 -127.164062 35.800781 -124.539062 37.84375 -122.5 C 39.882812 -120.457031 42.507812 -119.4375 45.71875 -119.4375 L 147.65625 -119.4375 L 147.65625 -101.0625 C 141.238281 -102.664062 133.507812 -104.234375 124.46875 -105.765625 C 115.425781 -107.296875 106.019531 -108.71875 96.25 -110.03125 C 86.476562 -111.34375 77.179688 -112.363281 68.359375 -113.09375 C 59.535156 -113.820312 52.0625 -114.1875 45.9375 -114.1875 C 42.726562 -114.1875 40.101562 -113.421875 38.0625 -111.890625 C 36.019531 -110.359375 35 -107.914062 35 -104.5625 Z M 35 0 "/></g></g></g><g mask="url(#88b3b7e573)"><g transform="matrix(1, 0, 0, 1, 146, 107)"><g clip-path="url(#5c49b930f4)"><g fill="#ffffff" fill-opacity="1"><g transform="translate(0.421909, 190.584116)"><g><path d="M 30 0 L 15 0 L 15 -187.5 L 144.9375 -187.5 L 144.9375 -170.8125 C 141.0625 -172.0625 136.0625 -173.3125 129.9375 -174.5625 C 123.8125 -175.8125 117 -177 109.5 -178.125 C 102 -179.25 94.15625 -180.21875 85.96875 -181.03125 C 77.78125 -181.84375 69.75 -182.5 61.875 -183 C 54 -183.5 46.625 -183.75 39.75 -183.75 C 36.375 -183.75 33.875 -182.90625 32.25 -181.21875 C 30.625 -179.53125 29.8125 -176.125 29.8125 -171 L 29.8125 -111.75 C 29.8125 -109 30.6875 -106.75 32.4375 -105 C 34.1875 -103.25 36.4375 -102.375 39.1875 -102.375 L 126.5625 -102.375 L 126.5625 -86.625 C 121.0625 -88 114.4375 -89.34375 106.6875 -90.65625 C 98.9375 -91.96875 90.875 -93.1875 82.5 -94.3125 C 74.125 -95.4375 66.15625 -96.3125 58.59375 -96.9375 C 51.03125 -97.5625 44.625 -97.875 39.375 -97.875 C 36.625 -97.875 34.375 -97.21875 32.625 -95.90625 C 30.875 -94.59375 30 -92.5 30 -89.625 Z M 30 0 "/></g></g></g></g></g></g></svg>